<svg width="739" height="898" viewBox="0 0 739 898" fill="none" xmlns="http://www.w3.org/2000/svg">
<g id="personnage 1">
<g id="personnage">
<g id="Grandefleur">
<path id="Vector" d="M87.9224 391.44L17.8174 393.783L28.6108 425.219C35.9033 445.666 50.6134 458.269 70.0116 461.822C77.0086 462.864 82.558 462.526 87.6764 461.649C82.8085 463.223 74.4792 466.712 71.2988 472.837C66.6909 481.727 66.4004 488.404 66.8662 502.478L69.7311 526.459C69.7311 526.459 119.776 505.603 119.666 504.243C126.994 499.703 136.129 493.133 141.944 484.97C146.317 478.841 148.816 471.799 147.268 464.035C157.19 452.892 155.793 446.932 143.071 446.15C141.869 446.08 140.617 446.07 139.325 446.125C139.119 442.676 138.849 438.58 138.528 433.836C136.695 420.968 130.334 409.261 120.843 401.312C112.864 394.629 103.218 391.052 93.4614 391.052C91.6134 391.052 89.7654 391.181 87.9224 391.44Z" fill="url(#paint0_linear_539_169)"/>
<path id="Vector_2" d="M123.568 453.649C100.243 460.207 96.7074 468.575 94.1824 478.502C91.6484 488.424 95.4004 513.352 97.2184 520.732C97.2184 520.732 127.464 513.297 150.278 497.569C164.077 485.339 161.387 479.857 160.796 461.668C159.459 444.41 157.666 432.046 155.422 424.585C157.556 435.006 146.933 444.694 123.568 453.649Z" fill="url(#paint1_linear_539_169)"/>
<path id="Vector_3" d="M57.4401 415.556C63.6607 442.242 75.8666 453.684 98.2744 456.082C103.724 458.105 143.627 456.027 159.694 479.414C161.092 478.841 160.22 462.929 157.095 431.682C153.379 415.725 151.661 405.424 142.69 396.145C133.72 386.86 114.913 381.498 103.373 379.704L50.7937 373.006L57.4401 415.556Z" fill="url(#paint2_linear_539_169)"/>
<path id="Vector_4" d="M122.13 454.088C120.172 454.621 118.644 455.169 118.168 455.324C115.619 456.171 113.085 457.198 112.028 457.726C137.702 462.266 154.08 469.641 161.162 479.858C161.693 478.736 161.127 469.542 160.997 465.077C159.669 445.83 157.731 432.275 155.352 424.371C156.294 434.911 147.494 445.053 122.13 454.088Z" fill="#FFB511"/>
</g>
<g id="Dialog">
<path id="Vector_5" fill-rule="evenodd" clip-rule="evenodd" d="M70.5476 67.9215C86.2914 67.9215 99.0554 80.6145 99.0554 96.2715V96.3445C99.0554 112.002 86.2914 124.695 70.5476 124.695H28.5075C26.9371 124.695 25.3963 124.568 23.8949 124.325L15.7501 132.149C15.5286 132.362 15.2327 132.481 14.9249 132.481C14.2688 132.481 13.737 131.952 13.737 131.3L13.7365 120.597C5.5017 115.626 0 106.624 0 96.3445V96.2715C0 80.6145 12.7633 67.9215 28.5075 67.9215H70.5476Z" fill="#253368"/>
<path id="Rectangle" d="M63.6328 0H123.659C146.151 0 164.384 18.1324 164.384 40.5C164.384 62.8675 146.151 80.9995 123.659 80.9995H63.6328C41.141 80.9995 22.9078 62.8675 22.9078 40.5C22.9078 18.1324 41.141 0 63.6328 0Z" fill="#597EF7"/>
<path id="Path" fill-rule="evenodd" clip-rule="evenodd" d="M144.764 69.2195V90.4215C144.764 91.3535 144.005 92.1085 143.067 92.1085C142.628 92.1085 142.205 91.9395 141.889 91.6355L126.222 76.6025L144.764 69.2195Z" fill="#597EF7"/>
<path id="Ellipse" d="M120.902 45.5625C117.27 45.5625 114.327 42.6348 114.327 39.0234C114.327 35.412 117.27 32.4843 120.902 32.4843C124.533 32.4843 127.477 35.412 127.477 39.0234C127.477 42.6348 124.533 45.5625 120.902 45.5625Z" fill="white"/>
<path id="Ellipse_2" d="M93.9644 45.5625C90.3334 45.5625 87.3894 42.6348 87.3894 39.0234C87.3894 35.412 90.3334 32.4843 93.9644 32.4843C97.5964 32.4843 100.539 35.412 100.539 39.0234C100.539 42.6348 97.5964 45.5625 93.9644 45.5625Z" fill="white"/>
<path id="Ellipse_3" d="M66.3903 45.5625C62.7588 45.5625 59.8149 42.6348 59.8149 39.0234C59.8149 35.412 62.7588 32.4843 66.3903 32.4843C70.0217 32.4843 72.9657 35.412 72.9657 39.0234C72.9657 42.6348 70.0217 45.5625 66.3903 45.5625Z" fill="white"/>
</g>
<g id="Plante">
<g id="Vector_6">
<path id="Vector_7" fill-rule="evenodd" clip-rule="evenodd" d="M505.073 220.263C463.925 200.8 439.401 251.844 460.095 280.265C485.348 314.947 498.285 354.854 505.488 366.878C511.565 377.02 528.212 401.748 548.257 390.351C566.704 379.861 556.65 338.694 556.65 338.694C556.65 338.694 555.835 244.273 505.073 220.263Z" fill="#5B8C00"/>
<path id="Vector_8" fill-rule="evenodd" clip-rule="evenodd" d="M628.839 382.424C642.828 363.55 647.936 336.467 632.321 329.522C617.351 322.864 592.554 339.257 581.067 370.811C569.582 402.364 562.955 425.051 574.19 428.995C592.624 435.467 610.362 407.351 628.839 382.424Z" fill="#5B8C00"/>
</g>
<g id="Vector_7_2">
<path id="Vector_9" fill-rule="evenodd" clip-rule="evenodd" d="M481.772 383.858C497.595 402.399 520.427 439.698 534.73 426.635C543.4 418.718 531.81 381.226 500.087 360.826C473.102 343.474 465.95 365.316 481.772 383.858Z" fill="#7CB305"/>
<path id="Vector_10" fill-rule="evenodd" clip-rule="evenodd" d="M633.176 255.187C627.159 251.139 619.59 250.215 612.683 252.427C603.045 255.514 588.418 264.706 573.941 291.091C555.041 325.538 545.202 363.302 547.147 387.223C548.418 402.866 567.691 409.611 578.472 398.204C583.424 392.966 588.663 384.891 593.789 372.641C614.418 323.344 633.705 292.452 636.005 289.35C642.142 281.073 646.53 264.172 633.176 255.187Z" fill="#7CB305"/>
</g>
<g id="Vector_8_2">
<path id="Vector_11" fill-rule="evenodd" clip-rule="evenodd" d="M619.34 274.85C619.136 277.284 620.944 279.423 623.378 279.627C625.812 279.831 627.95 278.024 628.155 275.589C628.359 273.156 626.551 271.017 624.117 270.813C621.683 270.609 619.545 272.417 619.34 274.85Z" fill="white"/>
<path id="Vector_12" fill-rule="evenodd" clip-rule="evenodd" d="M581.776 293.733C581.571 296.166 583.379 298.305 585.813 298.509C588.247 298.714 590.385 296.906 590.59 294.472C590.794 292.038 588.986 289.9 586.552 289.695C584.118 289.491 581.98 291.299 581.776 293.733Z" fill="white"/>
<path id="Vector_13" fill-rule="evenodd" clip-rule="evenodd" d="M588.071 344.008C587.837 346.795 589.908 349.244 592.695 349.478C595.483 349.712 597.932 347.642 598.165 344.854C598.399 342.067 596.329 339.618 593.542 339.384C590.755 339.15 588.305 341.22 588.071 344.008Z" fill="white"/>
<path id="Vector_14" fill-rule="evenodd" clip-rule="evenodd" d="M472.691 268.874C472.691 272.83 475.897 276.036 479.853 276.036C483.809 276.036 487.016 272.83 487.016 268.874C487.016 264.918 483.809 261.711 479.853 261.711C475.897 261.711 472.691 264.918 472.691 268.874Z" fill="white"/>
<path id="Vector_15" fill-rule="evenodd" clip-rule="evenodd" d="M530.352 290.746C530.352 294.702 533.558 297.909 537.514 297.909C541.47 297.909 544.677 294.702 544.677 290.746C544.677 286.79 541.47 283.583 537.514 283.583C533.558 283.583 530.352 286.79 530.352 290.746Z" fill="white"/>
<path id="Vector_16" fill-rule="evenodd" clip-rule="evenodd" d="M511.677 339.366C511.677 341.019 513.017 342.36 514.671 342.36C516.324 342.36 517.664 341.019 517.664 339.366C517.664 337.712 516.324 336.372 514.671 336.372C513.017 336.372 511.677 337.712 511.677 339.366Z" fill="white"/>
<path id="Vector_17" fill-rule="evenodd" clip-rule="evenodd" d="M490.109 377.651C490.109 380.094 492.089 382.074 494.531 382.074C496.974 382.074 498.954 380.094 498.954 377.651C498.954 375.209 496.974 373.229 494.531 373.229C492.089 373.229 490.109 375.209 490.109 377.651Z" fill="white"/>
</g>
<g id="Vector_9_2">
<path id="Vector_18" d="M593.408 387.462C592.996 387.069 592.343 387.084 591.95 387.496L591.761 387.7L591.618 387.858C591.358 388.148 591.058 388.495 590.721 388.897C589.762 390.04 588.696 391.406 587.55 392.993C584.284 397.516 581.02 402.912 577.977 409.172C569.29 427.039 564.081 448.26 564.081 472.758C564.081 473.328 564.542 473.789 565.112 473.789C565.682 473.789 566.143 473.328 566.143 472.758C566.143 448.583 571.278 427.668 579.832 410.074C582.822 403.924 586.024 398.629 589.222 394.2C590.273 392.745 591.252 391.485 592.136 390.42L592.301 390.222C592.552 389.923 592.781 389.657 592.985 389.425L593.244 389.136C593.339 389.03 593.406 388.958 593.442 388.92C593.836 388.508 593.82 387.855 593.408 387.462Z" fill="#253368"/>
<path id="Vector_19" d="M515.497 394.68C515.156 394.223 514.51 394.13 514.054 394.47C513.597 394.811 513.504 395.457 513.844 395.914C517.6 400.944 521.067 406.353 524.254 412.086C530.993 424.207 536.203 437.201 540.069 450.197C541.423 454.745 542.511 458.967 543.359 462.755L543.53 463.531C543.733 464.458 543.907 465.302 544.056 466.06L544.152 466.555L544.323 467.49C544.418 468.052 544.95 468.431 545.511 468.336C546.073 468.242 546.452 467.71 546.357 467.148L546.299 466.816C546.25 466.548 546.191 466.232 546.121 465.871L545.95 465.012C545.784 464.194 545.592 463.289 545.371 462.304L545.184 461.477C544.356 457.861 543.316 453.876 542.046 449.608C538.139 436.478 532.875 423.348 526.057 411.084C522.826 405.273 519.31 399.787 515.497 394.68Z" fill="#253368"/>
<path id="Vector_20" d="M497.476 266.018C497.081 266.397 497.053 267.013 497.4 267.426L497.445 267.476C497.465 267.498 497.509 267.544 497.575 267.615L497.828 267.892L497.976 268.056C498.42 268.55 498.936 269.146 499.518 269.843C501.188 271.84 503.051 274.244 505.059 277.056C510.806 285.102 516.557 294.792 521.926 306.137C530.866 325.027 537.829 346.571 542.049 370.79C547.173 400.2 548.021 432.327 543.827 467.196C543.759 467.762 544.162 468.275 544.728 468.343C545.293 468.411 545.807 468.008 545.875 467.443C550.093 432.374 549.239 400.044 544.081 370.436C539.828 346.03 532.808 324.309 523.79 305.255C518.367 293.796 512.554 284 506.738 275.857L506.287 275.229C504.494 272.746 502.817 270.586 501.291 268.748L501.101 268.52C500.553 267.864 500.06 267.294 499.628 266.809L499.511 266.678C499.376 266.528 499.255 266.395 499.149 266.28L498.934 266.049C498.54 265.638 497.887 265.624 497.476 266.018Z" fill="#253368"/>
<path id="Vector_21" d="M586.739 327.173C586.252 326.878 585.618 327.033 585.323 327.52L585.219 327.694C585.137 327.834 585.04 328 584.929 328.193L584.767 328.476C584.49 328.963 584.18 329.521 583.837 330.151L583.554 330.676C582.505 332.629 581.356 334.888 580.128 337.448L579.96 337.798C575.957 346.185 571.956 355.993 568.223 367.138C557.769 398.343 551.41 433.76 551.172 472.752C551.168 473.321 551.627 473.786 552.197 473.789C552.766 473.793 553.231 473.334 553.234 472.764C553.471 434.001 559.792 398.798 570.178 367.793C573.817 356.931 577.71 347.354 581.605 339.142L581.822 338.687C583.153 335.897 584.393 333.462 585.511 331.393L585.847 330.774C586.17 330.184 586.461 329.667 586.717 329.221L586.839 329.011L587.087 328.589C587.382 328.102 587.226 327.468 586.739 327.173Z" fill="#253368"/>
<path id="Vector_22" fill-rule="evenodd" clip-rule="evenodd" d="M507.371 523.911H596.511C601.33 523.911 605.272 519.968 605.272 515.15V450.119C605.272 445.3 601.33 441.358 596.511 441.358H507.371C502.553 441.358 498.61 445.3 498.61 450.119V515.15C498.61 519.968 502.553 523.911 507.371 523.911Z" fill="#253368"/>
</g>
</g>
<g id="Petitefleur">
<path id="Vector_10_2" d="M575.337 175.815L604.718 148.343L613.153 165.53C618.529 176.82 617.7 187.921 611.282 197.235C608.87 200.497 606.481 202.609 604.048 204.327C606.664 202.995 611.463 201.039 615.249 202.245C620.74 204 623.58 206.604 629.126 212.528L637.737 223.462C637.737 223.462 608.945 235.256 608.435 234.657C603.614 235.778 597.233 236.805 591.548 235.837C587.277 235.112 583.394 233.255 580.857 229.464C572.293 228.946 570.43 225.95 575.27 220.473C575.729 219.957 576.233 219.445 576.779 218.944C575.457 217.455 573.897 215.676 572.094 213.612C567.593 207.625 565.402 200.275 566.011 193.187C566.523 187.229 568.976 181.859 572.933 177.903C573.682 177.153 574.484 176.457 575.337 175.815Z" fill="url(#paint3_linear_539_169)"/>
<path id="Vector_11_2" d="M586.235 215.621C598.366 208.836 603.21 210.812 608.279 213.834C613.35 216.85 621.987 228.53 624.258 232.275C624.258 232.275 608.963 241.509 593.303 244.35C582.724 244.962 581.58 241.637 574.407 233.985C567.916 226.409 563.605 220.643 561.474 216.693C564.856 221.805 573.111 221.446 586.235 215.621Z" fill="url(#paint4_linear_539_169)"/>
<path id="Vector_12_2" d="M597.525 173.283C605.878 186.681 605.592 196.293 597.483 206.356C596.097 209.39 579.07 224.724 582.086 240.77C581.286 241.103 575.155 234.265 563.688 220.264C558.692 212.254 555.191 207.359 555.047 199.94C554.9 192.52 560.341 182.708 564.289 177.298L582.88 153.248L597.525 173.283Z" fill="url(#paint5_linear_539_169)"/>
<path id="Vector_13_2" d="M586.997 215.217C588.008 214.64 588.851 214.244 589.107 214.114C590.486 213.426 591.932 212.816 592.576 212.603C584.015 224.864 580.38 234.511 581.672 241.546C580.999 241.304 577.482 237.328 575.715 235.455C568.41 227.073 563.672 220.763 561.415 216.578C565.329 221.255 573.03 221.819 586.997 215.217Z" fill="#FFB511"/>
</g>
<g id="Woman">
<path id="Fill 1" fill-rule="evenodd" clip-rule="evenodd" d="M361.854 118.593C361.854 118.593 390.023 116.956 394.838 147.036C420.949 159.18 411.061 187.995 411.061 187.995C411.061 187.995 422.607 212.295 394.69 221.823C390.499 245.337 363.972 238.706 363.972 238.706C363.972 238.706 355.942 256.464 336.148 247.157C312.614 262.428 271.347 255.392 258.398 233.116C227.249 252.464 178.628 221.366 186.738 201.95C152.738 196.925 139.294 159.196 161.978 130.091C148.695 104.373 167.47 91.4945 167.47 91.4945C167.47 91.4945 167.452 35.0546 206.833 30.8579C229.333 2.41222 270.281 30.37 270.281 30.37C270.281 30.37 299.3 26.9051 307.386 52.5685C338.82 60.2275 335.816 77.6325 336.998 92.5685C365.369 96.6465 361.854 118.593 361.854 118.593Z" fill="#253368"/>
<path id="Fill 3" fill-rule="evenodd" clip-rule="evenodd" d="M275.812 83.6046C253.136 85.6026 247.804 68.0886 247.804 68.0886C247.804 68.0886 240.643 43.456 237.019 57.8866C235.096 65.5536 223.977 54.1986 217.744 62.0136C213.548 67.2716 222.215 75.2655 208.861 89.0985C201.127 97.1135 228.124 106.374 209.732 120.789C209.732 120.789 220.165 141.228 198.834 145.757L194.671 168.303C192.25 181.426 201.664 193.777 214.942 194.904C227.601 195.976 238.647 186.367 239.355 173.663L240.899 145.866C273.176 148.653 278.577 104.368 275.812 83.6046Z" fill="#FFC999"/>
<path id="Fill 5" fill-rule="evenodd" clip-rule="evenodd" d="M252.004 112.703C242.666 112.802 234.491 107.344 234.491 107.344C234.491 107.344 232.057 119.524 239.843 120.985C247.403 122.405 252.004 112.703 252.004 112.703Z" fill="white"/>
<path id="Stroke 7" d="M233.154 107.076L233.063 107.597C233.03 107.814 232.994 108.072 232.958 108.367C232.715 110.359 232.677 112.453 232.982 114.443C233.626 118.656 235.707 121.598 239.592 122.327C243.654 123.09 247.216 121.245 250.202 117.812C251.058 116.827 251.805 115.777 252.441 114.728C252.826 114.093 253.092 113.592 253.236 113.289C253.668 112.377 252.997 111.327 251.99 111.338C248.083 111.379 244.07 110.411 240.191 108.767C238.856 108.201 237.635 107.595 236.555 106.99L236.055 106.704C235.679 106.484 235.406 106.314 235.247 106.208C234.44 105.669 233.344 106.123 233.154 107.076ZM235.539 110.036L235.575 109.564L235.224 109.373C236.387 110.024 237.697 110.675 239.128 111.281L239.917 111.606C242.792 112.757 245.741 113.559 248.695 113.894L249.68 113.986L249.392 114.416C249.01 114.965 248.594 115.504 248.146 116.019C245.73 118.797 243.03 120.195 240.094 119.643C237.543 119.165 236.164 117.215 235.677 114.029C235.481 112.748 235.451 111.383 235.539 110.036Z" fill="#F5222D"/>
<path id="Stroke 9" d="M245.242 106.154C245.693 106.144 246.438 106.047 247.484 105.788C249.087 105.392 250.966 104.71 253.125 103.682L253.507 103.496L253.187 102.895C251.718 100.066 250.717 97.3075 250.116 94.6665L249.961 93.9485C249.549 91.9095 249.418 90.1955 249.457 88.8795L249.49 88.2695C249.492 88.2405 249.495 88.2155 249.497 88.1955C249.56 87.6335 250.066 87.2295 250.627 87.2925C251.133 87.3495 251.51 87.7655 251.534 88.2575L251.515 88.6165C251.446 89.8045 251.548 91.4785 251.966 93.5425C252.597 96.6625 253.829 99.9865 255.808 103.422C256.099 103.929 255.909 104.577 255.389 104.844C252.525 106.318 250.056 107.261 247.974 107.776C246.769 108.074 245.859 108.192 245.241 108.201L244.965 108.197C244.402 108.162 243.973 107.676 244.008 107.112C244.04 106.604 244.436 106.205 244.926 106.156L245.089 106.152L245.242 106.154Z" fill="#DD936F"/>
<path id="Stroke 11" d="M229.691 79.9646C233.862 80.3266 236.522 85.5386 236.013 91.4356C235.951 92.1596 235.314 92.6956 234.591 92.6336C233.868 92.5706 233.333 91.9326 233.395 91.2086C233.794 86.5766 231.865 82.7946 229.466 82.5866C227.07 82.3816 224.523 85.7766 224.122 90.4076C224.059 91.1316 223.422 91.6676 222.699 91.6056C221.976 91.5426 221.441 90.9046 221.504 90.1806C222.002 84.4326 225.349 79.8426 229.38 79.9466L229.691 79.9646Z" fill="#253368"/>
<path id="Stroke 13" d="M264.994 86.2475C269.164 86.6065 271.823 91.8195 271.315 97.7155C271.252 98.4405 270.616 98.9765 269.893 98.9135C269.169 98.8515 268.634 98.2135 268.696 97.4895C269.095 92.8585 267.166 89.0765 264.769 88.8695C262.371 88.6635 259.825 92.0565 259.426 96.6885C259.363 97.4125 258.727 97.9485 258.004 97.8865C257.281 97.8235 256.745 97.1865 256.807 96.4615C257.303 90.7135 260.651 86.1235 264.683 86.2305L264.994 86.2475Z" fill="#253368"/>
<path id="Stroke 15" d="M219.752 67.6236C225.978 64.4396 231.913 64.3236 237.032 66.0506C238.252 66.4626 239.136 66.8826 239.639 67.1826C240.295 67.5736 240.51 68.4236 240.119 69.0806C239.728 69.7376 238.879 69.9526 238.223 69.5606L238.093 69.4896C238.006 69.4426 237.884 69.3806 237.729 69.3076C237.279 69.0936 236.75 68.8776 236.149 68.6746C231.692 67.1706 226.519 67.2726 221.01 70.0906C220.33 70.4376 219.497 70.1676 219.15 69.4866C218.802 68.8056 219.072 67.9716 219.752 67.6236Z" fill="#253368"/>
<path id="Stroke 17" d="M220.703 138.578C221.015 138.107 221.649 137.977 222.12 138.289C228.088 142.243 234.433 144.519 240.944 145.171C241.505 145.227 241.915 145.729 241.859 146.292C241.803 146.854 241.302 147.265 240.74 147.209C233.898 146.523 227.235 144.134 220.992 139.997C220.521 139.685 220.391 139.05 220.703 138.578Z" fill="#DD936F"/>
<path id="Fill 19" fill-rule="evenodd" clip-rule="evenodd" d="M353.517 361.701L355.207 360.772C367.834 353.821 372.445 337.94 365.507 325.298L301.231 208.185C294.29 195.54 278.431 190.926 265.806 197.874L264.116 198.803C251.491 205.753 246.88 221.632 253.818 234.277L318.094 351.389C325.035 364.032 340.892 368.649 353.517 361.701Z" fill="#FFC999"/>
<path id="Fill 21" fill-rule="evenodd" clip-rule="evenodd" d="M280.998 283.797L253.366 233.451C246.708 221.315 251.922 205.514 264.962 198.338C278.002 191.164 294.118 195.224 300.779 207.36L328.146 257.228L280.998 283.797Z" fill="#FF7A46"/>
<path id="Stroke 23" d="M263.895 198.017C264.279 197.805 264.762 197.946 264.973 198.331C265.185 198.716 265.044 199.199 264.66 199.411C252.172 206.285 247.077 221.281 253.116 232.953L253.377 233.444L280.622 283.084L327.072 256.91C327.412 256.719 327.832 256.805 328.073 257.095L328.154 257.215C328.345 257.555 328.259 257.975 327.969 258.216L327.851 258.298L280.703 284.866C280.36 285.059 279.937 284.971 279.697 284.677L279.617 284.556L251.985 234.211C245.107 221.679 250.483 205.399 263.895 198.017Z" fill="#C44343"/>
<path id="Fill 25" fill-rule="evenodd" clip-rule="evenodd" d="M306.236 749.629C316.847 753.714 328.818 748.594 333.357 738.028L430.463 512.054C437.459 495.773 429.673 476.985 413.323 470.691C396.976 464.399 378.626 473.125 372.929 489.904L293.859 722.821C290.163 733.712 295.624 745.544 306.236 749.629Z" fill="#FFC999"/>
<path id="Fill 27" fill-rule="evenodd" clip-rule="evenodd" d="M163.734 463.624C170.564 442.975 189.474 430.826 205.611 436.72L379.107 500.105C392.47 504.987 398.623 522.532 392.968 539.632C387.318 556.733 371.92 567.132 358.289 563.063L181.302 510.238C164.841 505.324 156.907 484.273 163.734 463.624Z" fill="#FFC999"/>
<path id="Fill 29" fill-rule="evenodd" clip-rule="evenodd" d="M325.52 758.579L286.212 744.839L305.7 681.807L350.829 697.579L325.52 758.579Z" fill="#FF7A46"/>
<path id="Stroke 31" d="M303.062 694.817C303.29 694.163 303.965 693.792 304.624 693.926L304.804 693.976L346.465 708.539C347.178 708.788 347.554 709.569 347.305 710.282C347.077 710.937 346.403 711.308 345.743 711.173L345.564 711.124L303.903 696.561C303.19 696.312 302.813 695.531 303.062 694.817Z" fill="#E4EBF7"/>
<path id="Fill 33" fill-rule="evenodd" clip-rule="evenodd" d="M334.151 744.755L290.934 729.65L261.12 808.158L358.499 842.192L362.978 830.105C364.608 825.656 362.825 820.676 358.735 818.285L335.54 801.639L324.898 789.425C321.692 785.747 320.762 780.616 322.49 776.05C326.204 766.235 332.479 749.582 334.151 744.755Z" fill="#4E5C93"/>
<path id="Fill 35" fill-rule="evenodd" clip-rule="evenodd" d="M261.159 811.071L358.24 845.001C359.162 845.323 360.168 844.837 360.487 843.913L364.289 833.012C364.61 832.09 364.126 831.082 363.203 830.762L266.123 796.832C265.202 796.51 264.197 796.996 263.875 797.918L260.076 808.821C259.754 809.742 260.242 810.749 261.159 811.071Z" fill="#E4EBF7"/>
<path id="Fill 37" fill-rule="evenodd" clip-rule="evenodd" d="M363.203 830.762C365.598 823.889 362.662 816.293 356.27 812.83L335.553 801.603L328.125 818.231L363.203 830.762Z" fill="#E4EBF7"/>
<path id="Stroke 39" d="M265.462 796.6C265.573 796.281 265.893 796.093 266.215 796.137L266.353 796.17L363.434 830.099C363.799 830.227 363.991 830.627 363.864 830.992C363.752 831.312 363.433 831.499 363.11 831.456L362.973 831.423L265.892 797.493C265.527 797.365 265.335 796.966 265.462 796.6Z" fill="#A3B5D6"/>
<path id="Stroke 41" d="M312.951 772.741C316.163 771.734 319.509 771.512 322.453 771.726L322.832 771.757C322.998 771.772 323.126 771.787 323.215 771.798C323.982 771.897 324.523 772.601 324.424 773.368C324.325 774.136 323.624 774.678 322.857 774.579L322.25 774.522C319.845 774.347 317.11 774.502 314.497 775.21L313.788 775.416L313.36 775.559L313.693 775.736C314.167 775.989 314.664 776.265 315.185 776.564L315.713 776.871L316.708 777.463C316.877 777.565 317.047 777.669 317.219 777.774C318.56 778.596 319.924 779.476 321.242 780.355L322.973 781.53C323.981 782.233 323.66 783.803 322.458 784.053L322.137 784.129C322.038 784.155 321.922 784.185 321.788 784.223C321.216 784.382 320.57 784.591 319.865 784.853C318.853 785.229 317.829 785.675 316.807 786.194L316.429 786.392L316.828 786.538L317.585 786.832C319.187 787.471 320.869 788.256 322.6 789.155C324.293 790.036 325.942 790.979 327.483 791.921L328.608 792.621L329.483 793.186C330.696 793.999 330.006 795.851 328.625 795.752L328.121 795.688C326.06 795.475 323.62 795.809 321.317 797.121C320.913 797.351 320.521 797.61 320.142 797.897C319.526 798.364 318.648 798.241 318.182 797.623C317.716 797.006 317.838 796.127 318.455 795.66C318.931 795.3 319.425 794.976 319.933 794.686C321.193 793.968 322.477 793.485 323.739 793.191L324.021 793.129L323.721 792.955C323.326 792.731 322.927 792.51 322.525 792.291L321.31 791.644C319.657 790.785 318.057 790.038 316.549 789.436C315.143 788.875 313.843 788.452 312.675 788.184C311.48 787.909 311.19 786.338 312.207 785.653C314.127 784.362 316.104 783.339 318.056 782.55L318.954 782.202L318.388 781.829C317.95 781.544 317.511 781.261 317.071 780.983L315.757 780.165L314.776 779.572L314.3 779.291C312.301 778.121 310.653 777.283 309.52 776.887C308.395 776.494 308.244 774.962 309.27 774.356C310.4 773.688 311.633 773.154 312.951 772.741Z" fill="#E4EBF7"/>
<path id="Stroke 43" d="M309.301 757.241C301.69 757.533 295.847 760.237 292.691 766.009C290.454 770.101 291.393 773.065 295.083 773.959C297.656 774.582 301.577 774.206 306.66 773.056C310.144 772.268 314.003 771.152 318.006 769.83L320.488 768.991C322.707 768.224 324.517 767.554 325.717 767.088C326.036 767.016 326.702 766.786 327.388 766.429C328.442 765.879 329.213 765.193 329.535 764.228C329.974 762.913 329.389 761.609 327.982 760.459C327.861 760.359 327.724 760.281 327.577 760.228L326.901 759.994C326.681 759.921 326.423 759.839 326.129 759.748C324.998 759.396 323.734 759.045 322.367 758.717C317.948 757.658 313.491 757.08 309.301 757.241ZM309.408 760.041C313.309 759.891 317.524 760.437 321.716 761.442C323.02 761.755 324.224 762.091 325.299 762.425L326.39 762.78L326.511 762.887C326.837 763.186 326.889 763.312 326.88 763.34C326.843 763.45 326.565 763.698 326.096 763.942C325.633 764.184 325.15 764.351 324.861 764.425L323.597 764.902C322.211 765.417 320.472 766.041 318.448 766.726C314.052 768.215 309.805 769.471 306.042 770.322C301.36 771.382 297.77 771.725 295.741 771.233C294.003 770.813 293.729 769.948 295.146 767.356C297.756 762.583 302.687 760.299 309.408 760.041Z" fill="#E4EBF7"/>
<path id="Fill 45" fill-rule="evenodd" clip-rule="evenodd" d="M559.691 752.639C570.268 748.471 575.636 736.594 571.852 725.735L490.911 493.462C485.082 476.729 466.661 468.149 450.364 474.575C434.066 480.999 426.433 499.851 433.558 516.073L532.479 741.258C537.103 751.785 549.116 756.81 559.691 752.639Z" fill="#FFC999"/>
<path id="Fill 47" fill-rule="evenodd" clip-rule="evenodd" d="M257.248 482.475C259.599 460.85 275.544 444.997 292.557 447.372L475.472 472.892C489.562 474.857 499.252 490.72 497.309 508.626C495.362 526.534 482.488 539.937 468.308 538.824L284.193 524.359C267.066 523.012 254.9 504.1 257.248 482.475Z" fill="#FFC999"/>
<path id="Fill 49" fill-rule="evenodd" clip-rule="evenodd" d="M579.944 746.186L541.699 762.661L513.523 703.014L557.429 684.098L579.944 746.186Z" fill="#FF7A46"/>
<path id="Stroke 51" d="M561.611 695.128C562.304 694.829 563.108 695.15 563.407 695.844C563.68 696.481 563.434 697.21 562.857 697.558L562.691 697.643L522.155 715.107C521.461 715.406 520.657 715.085 520.358 714.391C520.085 713.754 520.331 713.024 520.908 712.677L521.074 712.592L561.611 695.128Z" fill="#E4EBF7"/>
<path id="Fill 53" fill-rule="evenodd" clip-rule="evenodd" d="M576.976 730.155L534.931 748.268L565.939 826.309L660.682 785.494L655.828 773.555C654.029 769.172 649.351 766.709 644.727 767.713L616.393 771.142L600.307 769.343C595.461 768.8 591.311 765.647 589.505 761.113C585.617 751.364 579.005 734.845 576.976 730.155Z" fill="#4E5C93"/>
<path id="Fill 55" fill-rule="evenodd" clip-rule="evenodd" d="M567.934 828.431L662.389 787.738C663.283 787.354 663.698 786.313 663.315 785.418L658.755 774.811C658.372 773.913 657.333 773.5 656.436 773.884L561.983 814.577C561.087 814.964 560.674 816.002 561.061 816.9L565.615 827.507C566.003 828.402 567.04 828.815 567.934 828.431Z" fill="#E4EBF7"/>
<path id="Fill 57" fill-rule="evenodd" clip-rule="evenodd" d="M656.437 773.885C653.565 767.199 646.272 763.589 639.222 765.362L616.377 771.105L622.126 788.388L656.437 773.885Z" fill="#E4EBF7"/>
<path id="Stroke 59" d="M656.161 773.241C656.516 773.088 656.927 773.253 657.08 773.608C657.214 773.919 657.105 774.274 656.838 774.46L656.714 774.529L562.261 815.222C561.906 815.375 561.495 815.211 561.342 814.855C561.208 814.544 561.317 814.19 561.584 814.004L561.708 813.935L656.161 773.241Z" fill="#A3B5D6"/>
<path id="Stroke 61" d="M587.17 757.486C587.802 757.04 588.675 757.191 589.12 757.824C589.565 758.457 589.414 759.331 588.782 759.777L588.535 759.959C588.291 760.146 587.954 760.417 587.549 760.767C586.595 761.592 585.64 762.541 584.751 763.593C583.871 764.635 583.112 765.713 582.5 766.817L582.438 766.931L582.87 766.818C583.576 766.637 584.344 766.458 585.167 766.281L585.796 766.149C587.071 765.886 588.413 765.638 589.77 765.409L591.599 765.114L593.56 764.826C594.777 764.663 595.599 766.036 594.882 767.034L594.663 767.359C594.54 767.549 594.386 767.799 594.208 768.104C593.677 769.013 593.144 770.061 592.646 771.233C592.523 771.522 592.404 771.815 592.289 772.11L592.02 772.836L592.424 772.67C593.167 772.37 593.953 772.081 594.778 771.801L595.616 771.526C597.94 770.782 600.421 770.152 602.901 769.633C603.334 769.542 603.752 769.458 604.153 769.381L605.948 769.055C606.061 769.037 606.153 769.022 606.222 769.011C607.663 768.789 608.404 770.614 607.329 771.477L607.017 771.694C606.883 771.79 606.698 771.932 606.475 772.119C605.9 772.602 605.322 773.186 604.782 773.868C603.662 775.286 602.863 776.93 602.519 778.805C602.38 779.566 601.65 780.07 600.89 779.93C600.13 779.79 599.626 779.059 599.766 778.298C600.126 776.337 600.88 774.582 601.926 773.033L602.188 772.656L601.088 772.913C599.902 773.199 598.73 773.511 597.593 773.849L596.468 774.196C594.086 774.958 592.045 775.796 590.459 776.699C589.393 777.306 588.118 776.345 588.407 775.151C588.831 773.395 589.397 771.718 590.071 770.135C590.289 769.621 590.514 769.128 590.743 768.657L591.052 768.038L590.237 768.173C589.353 768.322 588.476 768.479 587.622 768.643L586.361 768.894L585.204 769.143C583.159 769.599 581.54 770.061 580.507 770.506C579.412 770.977 578.268 769.95 578.616 768.809C579.377 766.312 580.772 763.962 582.614 761.782C583.603 760.611 584.661 759.562 585.719 758.646L586.234 758.211C586.632 757.883 586.953 757.639 587.17 757.486Z" fill="#E4EBF7"/>
<path id="Stroke 63" d="M583.028 745.906C582.872 745.915 582.718 745.95 582.574 746.01L581.821 746.34L581.604 746.44C580.852 746.786 580.016 747.195 579.116 747.666C576.548 749.009 573.979 750.576 571.574 752.357C563.188 758.569 558.778 765.793 560.763 773.879C561.757 777.927 564.008 779.666 566.983 778.544C569.097 777.746 571.442 775.489 574.104 771.985C575.549 770.082 577.061 767.839 578.619 765.324C580.381 762.478 582.109 759.434 583.733 756.39L584.389 755.15C584.703 754.55 584.997 753.981 585.269 753.448L585.834 752.322L585.931 752.173C586.035 751.998 586.191 751.706 586.347 751.367C586.593 750.833 586.781 750.299 586.885 749.772C587.35 747.424 585.978 745.735 583.028 745.906ZM584.14 749.227C584.083 749.511 583.966 749.844 583.805 750.193L583.624 750.561C583.537 750.725 583.459 750.856 583.405 750.94L582.775 752.175C582.33 753.047 581.824 754.021 581.264 755.069C579.667 758.063 577.967 761.057 576.24 763.847C574.726 766.292 573.262 768.464 571.876 770.288C569.516 773.395 567.469 775.365 565.996 775.921C564.837 776.358 564.118 775.802 563.481 773.21C561.833 766.494 565.661 760.224 573.239 754.61C575.517 752.923 577.964 751.43 580.412 750.15C581.097 749.792 581.742 749.472 582.337 749.19L583.428 748.69L583.564 748.683C584.26 748.65 584.241 748.712 584.14 749.227Z" fill="#E4EBF7"/>
<path id="Fill 65" fill-rule="evenodd" clip-rule="evenodd" d="M286.794 228.865C291.662 241.025 300.751 261.985 301.345 275.57C302.306 297.589 287.255 313.2 287.255 313.2C287.255 313.2 287.52 317.805 289.954 363.601C224.105 371.862 176.594 365.55 176.594 365.55L178.395 342.505L169.536 306.398C169.536 306.398 168.922 292.484 157.137 262.268C148.939 241.261 152.303 216.638 154.218 203.075C155.035 197.264 150.025 189.771 155.74 188.46C175.697 183.884 185.815 186.376 185.815 186.376L188.309 173.464C188.736 171.252 190.722 169.69 192.969 169.802L240.96 172.158C243.02 172.259 244.752 173.747 245.166 175.771L247.973 187.082L280.291 193.383C284.91 194.531 288.24 198.561 288.492 203.319L286.794 228.865Z" fill="#FF7A46"/>
<path id="Stroke 67" d="M199.266 186.891L242.48 189.014C242.934 189.036 243.285 189.424 243.263 189.879C243.243 190.284 242.935 190.606 242.548 190.657L242.399 190.663L199.185 188.54C198.73 188.517 198.38 188.13 198.402 187.675C198.422 187.27 198.73 186.948 199.117 186.897L199.266 186.891Z" fill="#C44343"/>
<path id="Stroke 69" d="M184.818 182.683C185.245 182.377 185.823 182.435 186.182 182.796L186.293 182.928L229.087 242.761L249.422 189.906C249.611 189.415 250.125 189.146 250.624 189.25L250.789 189.299C251.279 189.488 251.548 190.003 251.444 190.502L251.395 190.668L230.357 245.356C230.075 246.09 229.138 246.256 228.616 245.718L228.511 245.592L184.574 184.161C184.233 183.685 184.343 183.024 184.818 182.683Z" fill="#CCD7EE"/>
<path id="Fill 71" fill-rule="evenodd" clip-rule="evenodd" d="M242.229 250.091C246.625 258.42 243.968 268.464 236.296 272.523C228.622 276.585 218.84 273.125 214.442 264.796C210.049 256.468 212.703 246.424 220.374 242.364C228.049 238.303 237.833 241.762 242.229 250.091Z" fill="#CCD7EE"/>
<path id="Fill 73" fill-rule="evenodd" clip-rule="evenodd" d="M243.953 250.135C248.346 258.464 245.692 268.508 238.02 272.568C230.345 276.629 220.564 273.17 216.165 264.841C211.769 256.512 214.426 246.468 222.098 242.409C229.772 238.347 239.557 241.807 243.953 250.135Z" fill="#E4EBF7"/>
<path id="Fill 75" fill-rule="evenodd" clip-rule="evenodd" d="M240.839 251.396C244.253 257.864 242.19 265.66 236.234 268.814C230.278 271.967 222.678 269.281 219.267 262.813C215.854 256.348 217.914 248.549 223.873 245.396C229.832 242.245 237.429 244.931 240.839 251.396Z" fill="#FAAD14"/>
<path id="Stroke 77" d="M147.624 201.767C148.078 201.803 148.417 202.2 148.382 202.654L148.181 205.463L148.031 207.745C147.931 209.308 147.833 210.954 147.739 212.658C147.522 216.611 147.349 220.496 147.237 224.192L147.187 226.023C146.994 233.695 147.099 239.843 147.57 243.889C148.044 247.954 150.349 254.695 154.039 263.335L154.4 264.177C155.181 265.986 156.012 267.856 156.886 269.775C158.955 274.316 161.173 278.928 163.39 283.37L164.511 285.599L166.345 289.176L166.414 289.356L179.946 342.604L179.967 342.889L177.789 364.669L180.275 364.893L182.133 365.046C184.375 365.224 186.868 365.4 189.596 365.567C219.674 367.409 253.384 366.957 286.785 362.633L288.653 362.385L288.631 360.695C288.552 357.15 288.275 350.223 287.848 340.825L287.459 332.467L286.607 315.044C286.598 314.877 286.641 314.711 286.729 314.568L287.313 313.594L287.9 312.585C288.205 312.053 288.528 311.482 288.865 310.873C290.473 307.973 292.081 304.833 293.581 301.569C295.62 297.133 297.295 292.819 298.482 288.764C299.574 285.037 300.223 281.621 300.372 278.588C300.754 270.792 300.041 264.716 298.095 258.457C297.069 255.157 295.696 251.751 293.678 247.401L292.828 245.6C291.825 243.509 289.943 239.665 288.399 236.521L285.94 231.52L285.857 231.149L286.01 217.616C286.015 217.16 286.388 216.795 286.843 216.8C287.248 216.805 287.581 217.101 287.646 217.486L287.658 217.635L287.506 230.969L293.823 243.867C294.166 244.575 294.455 245.176 294.665 245.619L294.758 245.816C297.032 250.656 298.548 254.363 299.669 257.967C301.674 264.415 302.41 270.685 302.018 278.668C301.862 281.845 301.189 285.385 300.064 289.228C298.852 293.368 297.148 297.755 295.078 302.259C293.777 305.091 292.396 307.829 291.003 310.402L290.307 311.674C289.965 312.29 289.638 312.87 289.328 313.409L288.474 314.869L288.264 315.214L288.573 321.376C288.753 325.026 288.933 328.737 289.106 332.389L289.958 351.402C290.222 357.896 290.344 362.007 290.288 363.151C290.268 363.549 289.969 363.876 289.575 363.929C255.216 368.584 220.444 369.109 189.495 367.215L187.206 367.069C184.975 366.921 182.92 366.768 181.053 366.615L178.093 366.355L176.8 366.229C176.4 366.186 176.096 365.863 176.066 365.474L176.067 365.326L178.313 342.871L164.84 289.857L164.068 288.362C163.418 287.097 162.695 285.669 161.916 284.108C159.69 279.65 157.464 275.021 155.387 270.46C154.727 269.013 154.093 267.594 153.485 266.207L152.887 264.831C148.923 255.641 146.447 248.489 145.933 244.08C145.451 239.937 145.345 233.726 145.539 225.982C145.63 222.337 145.785 218.484 145.988 214.544L146.093 212.567C146.187 210.858 146.286 209.208 146.386 207.639L146.739 202.527C146.774 202.072 147.17 201.732 147.624 201.767Z" fill="#C44343"/>
<path id="Fill 79" fill-rule="evenodd" clip-rule="evenodd" d="M292.208 377.03L288.007 362.625C288.007 362.625 234.337 366.54 183.894 366.521C181.453 372.41 180.973 383.573 180.973 383.573C185.03 379.885 236.455 387.453 292.208 377.03Z" fill="#4E5C93"/>
<path id="Fill 81" fill-rule="evenodd" clip-rule="evenodd" d="M459.702 444.036L308.926 401.111L294.331 377.726L181.502 382.154C181.502 382.154 109.013 516.91 194.817 546.405C262.954 565.185 281.88 567.111 281.88 567.111L308.669 604.009L430.463 545.301L519.449 489.243L459.702 444.036Z" fill="#4E5C93"/>
<path id="Stroke 83" d="M235.54 386.649C235.947 386.387 236.475 386.464 236.793 386.807L236.902 386.948L254.691 414.769L381.971 494.852C382.093 494.929 382.197 495.032 382.274 495.152L382.343 495.279L405.09 545.258C405.315 545.755 405.097 546.34 404.601 546.566C404.155 546.77 403.637 546.613 403.373 546.218L403.295 546.077L380.671 496.368L253.454 416.324C253.372 416.272 253.298 416.209 253.235 416.136L253.148 416.02L235.241 388.013C234.947 387.554 235.081 386.943 235.54 386.649Z" fill="#253368"/>
<path id="Stroke 85" d="M213.693 391.68C214.182 391.645 214.613 391.974 214.721 392.437L214.745 392.596L217.469 431.788L264.46 509.935L309.556 603.582C309.792 604.074 309.586 604.664 309.096 604.901C308.654 605.114 308.133 604.968 307.86 604.579L307.779 604.44L262.727 510.873L215.656 432.601C215.603 432.512 215.564 432.415 215.54 432.314L215.517 432.16L212.778 392.733C212.74 392.189 213.15 391.717 213.693 391.68Z" fill="#253368"/>
<path id="Stroke 87" d="M194.12 394.143L194.28 394.163C194.761 394.258 195.091 394.687 195.076 395.163L195.058 395.322L184.445 449.474L232.179 549.855C232.389 550.298 232.241 550.82 231.851 551.09L231.712 551.171C231.269 551.382 230.749 551.234 230.478 550.843L230.398 550.704L182.526 450.031C182.458 449.887 182.426 449.73 182.431 449.573L182.449 449.417L193.122 394.941C193.216 394.459 193.646 394.129 194.12 394.143Z" fill="#253368"/>
<path id="Stroke 89" d="M293.315 376.253C293.601 376.241 293.876 376.353 294.07 376.556L294.177 376.689L311 401.717L459.965 443.084L460.296 443.248L520.043 488.454C520.548 488.836 520.56 489.573 520.108 489.977L519.974 490.078L430.988 546.136C430.527 546.427 429.918 546.288 429.628 545.826C429.37 545.416 429.451 544.889 429.796 544.573L429.937 544.465L517.714 489.167L459.256 444.936L310.123 403.526C309.953 403.478 309.8 403.387 309.679 403.261L309.569 403.125L292.847 378.25L181.545 383.14C181.055 383.161 180.633 382.821 180.536 382.356L180.516 382.196C180.495 381.706 180.835 381.284 181.299 381.186L181.459 381.167L293.315 376.253Z" fill="#253368"/>
<path id="Stroke 91" d="M236.059 422.686C236.471 422.433 236.997 422.52 237.309 422.869L237.415 423.012L259.246 458.636L307.445 502.696C307.803 503.023 307.865 503.552 307.616 503.949L307.509 504.091C307.182 504.449 306.653 504.511 306.257 504.262L306.115 504.154L257.816 460.004L257.64 459.791L235.734 424.045C235.449 423.58 235.595 422.972 236.059 422.686Z" fill="#253368"/>
<path id="Stroke 93" d="M315.637 437.681C315.796 437.217 316.266 436.948 316.734 437.028L316.89 437.067L393.311 463.35L456.065 497.552C456.544 497.813 456.72 498.413 456.46 498.892C456.226 499.323 455.717 499.51 455.269 499.352L455.122 499.287L392.52 465.152L316.249 438.936C315.734 438.758 315.46 438.197 315.637 437.681Z" fill="#253368"/>
<path id="Fill 95" fill-rule="evenodd" clip-rule="evenodd" d="M416.349 201.743C423.72 205.636 427.022 214.086 423.85 220.92L365.424 349.959C359.354 361.874 342.072 372.367 327.778 361.952C314.582 354.978 309.16 339.541 315.777 327.786L396.646 205.823C400.676 199.744 409.219 197.977 416.349 201.743Z" fill="#FFC999"/>
<path id="Fill 97" fill-rule="evenodd" clip-rule="evenodd" d="M176.271 511.907C184.427 509.831 189.666 502.299 188.16 494.811L159.079 350.255C155.925 337.07 141.514 329.31 127.036 332.993C112.431 336.712 103.466 350.618 107.195 363.775L158.198 511.746C160.725 518.692 168.381 513.916 176.271 511.907Z" fill="#FFC999"/>
<path id="Fill 99" fill-rule="evenodd" clip-rule="evenodd" d="M125.871 375.328L128.777 375.915C143.099 378.811 157.056 369.533 159.946 355.188L186.064 225.667C188.954 211.324 179.688 197.351 165.363 194.454L162.46 193.865C148.138 190.971 134.181 200.25 131.291 214.592L105.175 344.113C102.28 358.458 111.549 372.432 125.871 375.328Z" fill="#FFC999"/>
<path id="Fill 101" fill-rule="evenodd" clip-rule="evenodd" d="M120.384 268.676L132.439 208.883C135.347 194.47 150.19 185.194 165.425 188.275C180.66 191.356 190.745 205.67 187.84 220.084L175.899 279.309L120.384 268.676Z" fill="#FF7A46"/>
<path id="Stroke 103" d="M120.124 266.08L176.352 279.018C176.786 279.117 177.056 279.551 176.957 279.985C176.868 280.371 176.517 280.629 176.135 280.611L175.991 280.591L119.763 267.653C119.329 267.553 119.058 267.12 119.158 266.685C119.246 266.299 119.598 266.042 119.98 266.06L120.124 266.08Z" fill="#C44343"/>
<path id="Fill 105" fill-rule="evenodd" clip-rule="evenodd" d="M227.586 546.774C232.337 544.96 223.909 523.948 221.283 519.647C217.784 513.909 185.562 496.073 185.562 496.073L179.902 470.724L150.222 482.839C150.222 482.839 154.786 510.802 163.15 525.217C169.392 535.972 180.008 533.67 195.103 547.914C202.09 554.506 210.835 561.483 214.397 556.222C215.099 555.183 222.364 557.091 221.431 550.662C221.431 550.662 223.901 552.591 226.228 550.642C228.247 548.947 227.586 546.774 227.586 546.774Z" fill="#FFC999"/>
<path id="Stroke 107" d="M188.697 531.407C188.938 530.895 189.547 530.676 190.058 530.917L190.637 531.205L190.848 531.314C191.462 531.634 192.145 532.009 192.88 532.439C194.978 533.667 197.076 535.085 199.039 536.678C200.82 538.122 202.403 539.645 203.736 541.241L215.413 555.217C215.775 555.651 215.718 556.297 215.284 556.659C214.851 557.022 214.206 556.965 213.844 556.531L202.168 542.555C200.925 541.067 199.435 539.635 197.752 538.269C195.876 536.747 193.862 535.386 191.848 534.207C191.319 533.898 190.82 533.619 190.356 533.37L189.393 532.87C189.306 532.827 189.236 532.793 189.186 532.769C188.675 532.528 188.457 531.918 188.697 531.407Z" fill="#DD936F"/>
<path id="Stroke 109" d="M196.686 522.188C197.035 521.742 197.677 521.664 198.122 522.013L198.795 522.556L199.632 523.251C199.925 523.498 200.23 523.76 200.547 524.034C202.358 525.604 204.169 527.295 205.862 529.045C207.799 531.047 209.457 533 210.754 534.866L211.777 536.325C212.133 536.829 212.505 537.351 212.891 537.889L214.106 539.572C215.084 540.918 216.103 542.305 217.14 543.7L220.11 547.666L221.555 549.57C221.898 550.019 221.813 550.662 221.365 551.005C220.917 551.349 220.275 551.264 219.931 550.815L218.045 548.326L217.594 547.726C216.192 545.861 214.79 543.974 213.447 542.141L211.823 539.908L210.657 538.282C210.096 537.494 209.567 536.744 209.075 536.036C207.849 534.271 206.259 532.399 204.393 530.47C202.746 528.767 200.977 527.116 199.209 525.582L198.315 524.818L197.047 523.772C196.969 523.71 196.907 523.661 196.861 523.625C196.417 523.277 196.338 522.633 196.686 522.188Z" fill="#DD936F"/>
<path id="Stroke 111" d="M203.821 515.858C204.138 515.389 204.773 515.267 205.241 515.584L205.913 516.06C206.438 516.44 207.022 516.88 207.65 517.373C209.444 518.782 211.238 520.344 212.915 522.019C216.166 525.266 218.586 528.54 219.829 531.754C220.433 533.315 221.104 534.848 221.829 536.345C222.994 538.749 224.242 540.948 225.489 542.895C225.925 543.574 226.328 544.173 226.69 544.684L227.132 545.295C227.475 545.744 227.389 546.386 226.941 546.73C226.492 547.074 225.851 546.987 225.507 546.538L225.15 546.05L225.02 545.866C224.641 545.33 224.221 544.706 223.768 544C222.479 541.989 221.192 539.72 219.99 537.239C219.24 535.692 218.547 534.109 217.922 532.494C216.8 529.593 214.538 526.532 211.471 523.469C209.856 521.856 208.122 520.347 206.388 518.985L205.513 518.31C205.373 518.205 205.237 518.103 205.103 518.004L204.171 517.334C204.141 517.313 204.115 517.294 204.094 517.28C203.626 516.962 203.504 516.326 203.821 515.858Z" fill="#DD936F"/>
<path id="Fill 113" fill-rule="evenodd" clip-rule="evenodd" d="M393.64 204.78L401.514 162.701C401.514 162.701 423.343 114.25 433.078 116.171C442.235 119.187 423.617 134.235 420.914 147.593C429.224 146.197 426.611 159.021 426.611 159.021C426.611 159.021 433.249 158.141 432.427 168.466C438.959 171.541 435.112 183.667 435.112 183.667C435.112 183.667 431.725 207.35 419.914 229.138C419.914 229.138 395.371 241.108 393.64 204.78Z" fill="#FFC999"/>
<path id="Fill 115" fill-rule="evenodd" clip-rule="evenodd" d="M392.643 201.383C392.643 201.383 393.179 181.736 394.021 171.671C394.861 161.606 388.988 144.14 396.644 148.186C401.789 150.906 401.963 161.615 402.533 169.471C403.109 177.322 417.519 194.692 409.324 208.453C403.788 217.75 393.858 219.852 392.643 201.383Z" fill="#FFC999"/>
<path id="Stroke 117" d="M420.111 146.962C420.459 146.517 421.102 146.439 421.546 146.788C421.991 147.137 422.068 147.781 421.72 148.226L421.328 148.739L420.558 149.782C420.466 149.908 420.373 150.038 420.278 150.171C419.19 151.69 418.102 153.314 417.088 154.974C416.088 156.612 415.215 158.197 414.504 159.694C411.863 165.26 411.823 168.69 414.746 169.596C415.285 169.763 415.587 170.336 415.42 170.876C415.253 171.417 414.68 171.719 414.141 171.552C409.487 170.109 409.541 165.381 412.657 158.815C413.401 157.247 414.308 155.601 415.344 153.906C416.386 152.2 417.501 150.535 418.616 148.978L419.179 148.2L420.057 147.031C420.077 147.005 420.095 146.982 420.111 146.962Z" fill="#DD936F"/>
<path id="Stroke 119" d="M426.604 158.774C426.989 159.188 426.966 159.836 426.552 160.221L426.121 160.633L425.569 161.175C425.376 161.367 425.173 161.571 424.964 161.784C423.765 163.006 422.567 164.311 421.451 165.643C420.358 166.948 419.404 168.209 418.628 169.398C416.152 173.192 415.827 175.602 417.762 176.55C418.173 176.751 418.594 176.849 419.036 176.851C420.607 176.858 422.467 175.662 424.361 173.626C425.053 172.883 425.698 172.083 426.277 171.283L426.718 170.655C426.838 170.478 426.931 170.335 426.993 170.234C427.291 169.754 427.922 169.606 428.401 169.904C428.881 170.203 429.028 170.834 428.731 171.314L428.541 171.609C428.388 171.84 428.184 172.137 427.933 172.484C427.308 173.348 426.611 174.212 425.857 175.022C423.608 177.44 421.323 178.909 419.027 178.898C418.279 178.895 417.553 178.728 416.864 178.39C413.351 176.668 413.848 172.978 416.916 168.277C417.741 167.014 418.743 165.69 419.884 164.327C421.038 162.95 422.271 161.606 423.505 160.349L424.421 159.432L425.159 158.721C425.573 158.336 426.22 158.36 426.604 158.774Z" fill="#DD936F"/>
<path id="Stroke 121" d="M430.013 168.428C430.56 168.287 431.118 168.617 431.258 169.165C431.398 169.713 431.069 170.271 430.522 170.411C429.204 170.75 427.611 172.122 425.793 174.732C421.975 180.21 421.396 183.548 422.735 184.169C424.125 184.814 427.126 183.083 428.867 180C429.492 178.893 431.173 179.694 430.709 180.878C428.255 187.142 425.045 191.208 420.518 194.624C419.908 195.084 419.279 195.531 418.564 196.017L415.611 197.962C409.627 201.907 407.376 204.925 406.646 211.988C406.588 212.55 406.086 212.959 405.524 212.901C404.963 212.843 404.554 212.34 404.612 211.777C405.392 204.223 407.898 200.693 413.985 196.586L416.878 194.684L417.915 193.98C418.403 193.641 418.852 193.318 419.288 192.988C421.934 190.991 424.088 188.772 425.895 185.948L426.129 185.57L425.933 185.674C424.589 186.337 423.241 186.537 422.128 186.132L421.876 186.027C418.846 184.622 419.653 179.963 424.116 173.56C426.188 170.586 428.133 168.911 430.013 168.428Z" fill="#DD936F"/>
<path id="Stroke 123" d="M401.637 158.643C402.137 158.553 402.618 158.844 402.781 159.309L402.824 159.47L405.438 174.045L405.583 174.248C405.807 174.567 406.057 174.935 406.325 175.35C407.088 176.529 407.851 177.843 408.563 179.258C410.613 183.331 411.848 187.418 411.849 191.282C411.849 193.465 411.448 195.515 410.601 197.399C410.369 197.914 409.763 198.144 409.248 197.912C408.733 197.679 408.504 197.073 408.736 196.557C409.459 194.951 409.804 193.187 409.804 191.283C409.803 187.789 408.656 183.992 406.737 180.18C406.195 179.103 405.622 178.088 405.043 177.151L404.609 176.463C404.176 175.795 403.843 175.322 403.659 175.078C403.594 174.992 403.543 174.897 403.508 174.796L403.468 174.641L400.811 159.832C400.711 159.275 401.081 158.743 401.637 158.643Z" fill="#DD936F"/>
<path id="Stroke 125" d="M287.97 363.638C288.514 363.618 288.972 364.043 288.993 364.588C289.01 365.079 288.668 365.499 288.203 365.593L288.043 365.612L183.931 369.507C183.387 369.528 182.929 369.101 182.908 368.556C182.891 368.066 183.233 367.646 183.698 367.552L183.857 367.534L287.97 363.638Z" fill="#253368"/>
</g>
</g>
</g>
<defs>
<linearGradient id="paint0_linear_539_169" x1="34.8096" y1="466.386" x2="122.1" y2="455.395" gradientUnits="userSpaceOnUse">
<stop stop-color="#FFBA00"/>
<stop offset="1" stop-color="#FA5800"/>
</linearGradient>
<linearGradient id="paint1_linear_539_169" x1="155.708" y1="448.214" x2="96.6064" y2="524.487" gradientUnits="userSpaceOnUse">
<stop stop-color="#FFF75D"/>
<stop offset="1" stop-color="#F89800"/>
</linearGradient>
<linearGradient id="paint2_linear_539_169" x1="52.583" y1="374.561" x2="153.905" y2="462.32" gradientUnits="userSpaceOnUse">
<stop stop-color="#FFF75D"/>
<stop offset="1" stop-color="#F89600"/>
</linearGradient>
<linearGradient id="paint3_linear_539_169" x1="627.416" y1="184.82" x2="587.58" y2="215.787" gradientUnits="userSpaceOnUse">
<stop stop-color="#FFBA00"/>
<stop offset="1" stop-color="#FA5800"/>
</linearGradient>
<linearGradient id="paint4_linear_539_169" x1="570.988" y1="226.439" x2="626.07" y2="233.289" gradientUnits="userSpaceOnUse">
<stop stop-color="#FFF75D"/>
<stop offset="1" stop-color="#F89800"/>
</linearGradient>
<linearGradient id="paint5_linear_539_169" x1="582.788" y1="154.607" x2="577.086" y2="231.428" gradientUnits="userSpaceOnUse">
<stop stop-color="#FFF75D"/>
<stop offset="1" stop-color="#F89600"/>
</linearGradient>
</defs>
</svg>
